<svg xmlns="http://www.w3.org/2000/svg" viewBox="0 0 275.59 111.99" width="110">
  <defs>
    <linearGradient gradientUnits="userSpaceOnUse" y2="33.93" x2="73.64" y1="33.93" x1="40.01" id="linear-gradient">
      <stop stop-color="#00edff" offset=".08"></stop>
      <stop stop-color="#20b1ff" offset=".32"></stop>
      <stop stop-color="#3f75ff" offset=".55"></stop>
      <stop stop-color="#7d00ff" offset=".97"></stop>
    </linearGradient>
    <linearGradient gradientUnits="userSpaceOnUse" y2="73.86" x2="46.36" y1="73.86" x1="6.89" id="New_Gradient_Swatch_2">
      <stop stop-color="#00edff" offset=".08"></stop>
      <stop stop-color="#7d00ff" offset=".97"></stop>
    </linearGradient>
    <linearGradient gradientUnits="userSpaceOnUse" y2="68.54" x2="63.01" y1="68.54" x1="38.16" id="linear-gradient-2">
      <stop stop-color="#00edff" offset=".04"></stop>
      <stop stop-color="#6f00ff" offset="1"></stop>
    </linearGradient>
    <style>
      .cls-4 {
        fill: #6f00ff
      }

      .cls-5 {
        fill: #00ffce
      }
    </style>
  </defs>
  <g>
    <path d="M124 52.39c0-1.33 1.18-2.07 3.11-2.07a5.37 5.37 0 014.95 3.25l9.47-5.1a16.18 16.18 0 00-14.42-7.91c-7.69 0-14.5 4.06-14.5 12.12 0 12.79 18.19 10.65 18.19 14.72 0 1.48-1.33 2.29-4 2.29a6.07 6.07 0 01-6.28-4.36l-9.62 5.47c2.89 6 8.51 8.8 15.9 8.8 8 0 15.38-3.63 15.38-12.13C142.2 53.79 124 56.6 124 52.39zM161.87 64.22l-8.21-22.63h-12.2l14.71 35.27c-1.62 4.51-4.06 6.14-9.24 6.14v10.35c10.35.52 16.93-4.14 21.07-15.9l12.65-35.86h-11.83zM209.34 45.07c-2.44-2.81-6.06-4.51-11-4.51-9.69 0-17.67 8.5-17.67 19.52s8 19.52 17.67 19.52c5 0 8.58-1.7 11-4.51v3.47h11.09v-37h-11.09zm-8.8 24c-5.1 0-8.8-3.48-8.8-9s3.7-9 8.8-9 8.8 3.47 8.8 9-3.7 9.03-8.8 9.03zM275.59 52.24V41.59H268V31.24l-11.09 3.33v7h-15V31.24l-11.09 3.33v7h-5.91v10.67h5.91v13.09c0 10.35 4.21 14.71 18.71 13.23v-10c-4.88.29-7.62 0-7.62-3.18v-13h15v13c0 10.35 4.21 14.71 18.71 13.23v-10c-4.88.29-7.62 0-7.62-3.18V52.24zM58.26 102.17a24.57 24.57 0 01-2.38 1.11 26.48 26.48 0 01-28.72-5.83L15.55 85.84a3 3 0 10-4.27 4.27l11.61 11.61a32.47 32.47 0 0039.8 4.87zM78.31 106.84l-53.5-53.49A26.46 26.46 0 0120 22.48L15.55 18a32.46 32.46 0 005 39.57L74 111.11a3 3 0 004.27-4.27zM66.57 11.59A32.43 32.43 0 0028.7 5.64a2.9 2.9 0 00-.78.6l4.38 4.38a26.4 26.4 0 0130 5.24 3 3 0 004.26-4.27zM70.16 89.4l4.08 4.08A3 3 0 0075.6 92a32.74 32.74 0 00-6.68-36.35L15.55 2.32a3 3 0 00-4.27 4.27L64.65 60a26.66 26.66 0 015.51 29.4z" class="cls-1"></path>
    <path fill="url(#linear-gradient)" d="M71.7 50.75a1.94 1.94 0 01-1.37-.57L40.58 20.43a1.94 1.94 0 012.74-2.74l29.75 29.75a1.94 1.94 0 01-1.37 3.31z"></path>
    <path fill="url(#New_Gradient_Swatch_2)" d="M44.42 93.6a1.94 1.94 0 01-1.37-.6L7.46 57.44a1.94 1.94 0 012.74-2.75l35.59 35.59a1.94 1.94 0 010 2.75 1.91 1.91 0 01-1.37.57z"></path>
    <circle r="2.59" cy="54.32" cx="77.21" class="cls-4"></circle>
    <circle r="2.59" cy="101.67" cx="83.71" class="cls-4"></circle>
    <circle r="2.59" cy="49.82" cx="2.59" class="cls-5"></circle>
    <path d="M35.32 14.37A1.94 1.94 0 0134 13.8L23.46 3.31A1.94 1.94 0 1126.2.57l10.49 10.49a1.93 1.93 0 010 2.74 1.91 1.91 0 01-1.37.57z" class="cls-5"></path>
    <path d="M78.24 97.93a1.68 1.68 0 01-1.24-.51L66.53 86.93A1.72 1.72 0 1169 84.5L79.46 95a1.73 1.73 0 01-1.22 2.94z" class="cls-4"></path>
    <path fill="url(#linear-gradient-2)" d="M61.07 81a1.92 1.92 0 01-1.37-.57l-21-21a1.94 1.94 0 012.74-2.74l21 21A1.94 1.94 0 0161.07 81z"></path>
  </g>
</svg>